<svg width="192" height="58" viewBox="0 0 192 58" fill="none" xmlns="http://www.w3.org/2000/svg">
<g filter="url(#filter0_ddiii_16601_1519)">
<g clip-path="url(#clip0_16601_1519)">
<rect x="4" y="4" width="48" height="48" rx="12" fill="#0BA5EC"/>
<rect x="16" y="14.5963" width="6" height="17.4324" rx="3" transform="rotate(-50 16 14.5963)" fill="#E0F2FE"/>
<rect x="16" y="27.5963" width="6" height="11.4662" rx="3" transform="rotate(-50 16 27.5963)" fill="#F5FBFF"/>
<rect width="48" height="48" transform="translate(4 4)" fill="url(#paint0_linear_16601_1519)"/>
<rect x="17" y="42" width="6" height="26" rx="3" fill="#7CD4FD"/>
<rect x="17" y="12" width="6" height="27" rx="3" fill="#7CD4FD"/>
<path d="M18.0376 29.5044L21 27L23 25.5V18.5L14.1808 24.9082C12.9116 25.9732 12.7461 27.8654 13.8111 29.1347C14.8761 30.4039 16.7683 30.5694 18.0376 29.5044Z" fill="#B9E6FE"/>
<rect x="20.3528" y="10" width="6" height="18.7361" rx="3" transform="rotate(50 20.3528 10)" fill="#7CD4FD"/>
<rect x="26" y="37" width="6" height="20" rx="3" fill="white" fill-opacity="0.8"/>
<rect x="35" y="31" width="6" height="27" rx="3" fill="white"/>
</g>
<rect x="5" y="5" width="46" height="46" rx="11" stroke="url(#paint1_linear_16601_1519)" stroke-width="2"/>
</g>
<path d="M76.128 39.448C74.464 39.448 72.9707 39.224 71.648 38.776C70.3253 38.328 69.1947 37.6453 68.256 36.728C67.3387 35.8107 66.6347 34.6907 66.144 33.368C65.6747 32.024 65.44 30.456 65.44 28.664C65.44 26.8293 65.6853 25.2187 66.176 23.832C66.6667 22.4453 67.3707 21.272 68.288 20.312C69.2267 19.352 70.3253 18.6373 71.584 18.168C72.8427 17.6773 74.24 17.432 75.776 17.432C76.992 17.432 78.1013 17.5813 79.104 17.88C80.128 18.1787 81.0133 18.6267 81.76 19.224C82.5067 19.8 83.0827 20.504 83.488 21.336C83.9147 22.1467 84.1387 23.0747 84.16 24.12L79.392 25.432C79.392 24.5573 79.2 23.8427 78.816 23.288C78.4533 22.7333 77.984 22.3173 77.408 22.04C76.8533 21.7413 76.2453 21.592 75.584 21.592C75.0507 21.592 74.496 21.7093 73.92 21.944C73.3653 22.1573 72.8533 22.5307 72.384 23.064C71.9147 23.576 71.5413 24.2587 71.264 25.112C70.9867 25.9653 70.848 27.032 70.848 28.312C70.848 29.976 71.0827 31.32 71.552 32.344C72.0213 33.368 72.672 34.1253 73.504 34.616C74.336 35.0853 75.2533 35.32 76.256 35.32C77.3653 35.32 78.2187 35.0853 78.816 34.616C79.4347 34.1253 79.872 33.5173 80.128 32.792C80.384 32.0667 80.5227 31.3307 80.544 30.584L85.024 31.288C85.0027 32.44 84.832 33.5173 84.512 34.52C84.192 35.5227 83.68 36.3973 82.976 37.144C82.2933 37.8693 81.3867 38.4347 80.256 38.84C79.1253 39.2453 77.7493 39.448 76.128 39.448ZM95.9223 39.448C94.5143 39.448 93.2556 39.2667 92.1463 38.904C91.0369 38.52 90.0876 37.9653 89.2983 37.24C88.5303 36.5147 87.9436 35.6187 87.5383 34.552C87.1329 33.4853 86.9303 32.2587 86.9303 30.872C86.9303 29.528 87.1223 28.2907 87.5063 27.16C87.9116 26.0293 88.4769 25.0587 89.2023 24.248C89.9489 23.416 90.8556 22.776 91.9223 22.328C93.0103 21.88 94.2263 21.656 95.5703 21.656C96.9356 21.656 98.1303 21.88 99.1543 22.328C100.2 22.7547 101.053 23.3947 101.714 24.248C102.397 25.1013 102.898 26.1467 103.218 27.384C103.538 28.6 103.645 29.9973 103.538 31.576L90.3223 31.672V28.984L100.594 28.888L98.7703 30.136C98.9196 29.0693 98.8556 28.2053 98.5783 27.544C98.3009 26.8613 97.8956 26.3707 97.3623 26.072C96.8289 25.752 96.2529 25.592 95.6343 25.592C94.8876 25.592 94.2263 25.7947 93.6503 26.2C93.0956 26.6053 92.6583 27.192 92.3383 27.96C92.0183 28.728 91.8583 29.6667 91.8583 30.776C91.8583 32.5253 92.2316 33.7947 92.9783 34.584C93.7463 35.3733 94.7169 35.768 95.8903 35.768C96.4663 35.768 96.9463 35.6933 97.3303 35.544C97.7143 35.3733 98.0236 35.1707 98.2583 34.936C98.5143 34.68 98.7063 34.4027 98.8343 34.104C98.9836 33.8053 99.1009 33.5173 99.1863 33.24L103.666 34.2C103.496 34.9893 103.218 35.704 102.834 36.344C102.472 36.984 101.97 37.5387 101.33 38.008C100.712 38.4773 99.9543 38.8293 99.0583 39.064C98.1836 39.32 97.1383 39.448 95.9223 39.448ZM106.672 39V28.088V22.104H110.736L110.8 27.064H111.44C111.738 25.848 112.133 24.8453 112.624 24.056C113.114 23.2453 113.712 22.648 114.416 22.264C115.12 21.8587 115.941 21.656 116.88 21.656C117.861 21.656 118.672 21.8693 119.312 22.296C119.973 22.7013 120.496 23.3093 120.88 24.12C121.264 24.9093 121.52 25.8907 121.648 27.064H122.192C122.533 25.8053 122.981 24.7813 123.536 23.992C124.09 23.1813 124.752 22.5947 125.52 22.232C126.288 21.848 127.12 21.656 128.016 21.656C128.976 21.656 129.808 21.848 130.512 22.232C131.237 22.5947 131.834 23.1493 132.304 23.896C132.794 24.6213 133.157 25.5387 133.392 26.648C133.626 27.736 133.744 29.0053 133.744 30.456V39H128.56V31.096C128.56 29.9653 128.464 29.0267 128.272 28.28C128.101 27.5333 127.824 26.9787 127.44 26.616C127.056 26.232 126.565 26.04 125.968 26.04C125.285 26.04 124.698 26.264 124.208 26.712C123.738 27.16 123.376 27.7893 123.12 28.6C122.864 29.3893 122.736 30.2853 122.736 31.288V39H117.68V31.192C117.68 30.0187 117.573 29.0587 117.36 28.312C117.168 27.5653 116.869 27 116.464 26.616C116.08 26.232 115.589 26.04 114.992 26.04C114.309 26.04 113.733 26.264 113.264 26.712C112.794 27.16 112.432 27.7893 112.176 28.6C111.941 29.3893 111.824 30.2853 111.824 31.288V39H106.672ZM141.452 39.448C140.513 39.448 139.681 39.2667 138.956 38.904C138.231 38.52 137.665 37.976 137.26 37.272C136.855 36.5467 136.652 35.672 136.652 34.648C136.652 33.688 136.833 32.8987 137.196 32.28C137.58 31.64 138.124 31.1387 138.828 30.776C139.553 30.392 140.417 30.0827 141.42 29.848C142.423 29.592 143.564 29.368 144.844 29.176C145.463 29.0693 145.975 28.9733 146.38 28.888C146.807 28.7813 147.127 28.6213 147.34 28.408C147.553 28.1947 147.66 27.8853 147.66 27.48C147.66 26.9467 147.468 26.488 147.084 26.104C146.7 25.72 146.081 25.528 145.228 25.528C144.631 25.528 144.087 25.6347 143.596 25.848C143.127 26.0613 142.721 26.3707 142.38 26.776C142.039 27.1813 141.783 27.672 141.612 28.248L137.068 26.904C137.345 26.008 137.729 25.2293 138.22 24.568C138.732 23.9067 139.34 23.3627 140.044 22.936C140.748 22.488 141.548 22.168 142.444 21.976C143.361 21.7627 144.332 21.656 145.356 21.656C147.063 21.656 148.449 21.9333 149.516 22.488C150.604 23.0213 151.404 23.864 151.916 25.016C152.449 26.1467 152.716 27.608 152.716 29.4V31.992C152.716 32.76 152.727 33.5387 152.748 34.328C152.791 35.096 152.833 35.8747 152.876 36.664C152.94 37.432 153.015 38.2107 153.1 39H148.556C148.471 38.5093 148.385 37.9227 148.3 37.24C148.215 36.536 148.151 35.8213 148.108 35.096H147.5C147.201 35.9067 146.764 36.6533 146.188 37.336C145.633 37.9973 144.951 38.52 144.14 38.904C143.351 39.2667 142.455 39.448 141.452 39.448ZM143.788 35.8C144.172 35.8 144.556 35.736 144.94 35.608C145.345 35.4587 145.729 35.2667 146.092 35.032C146.455 34.776 146.785 34.4667 147.084 34.104C147.383 33.7413 147.607 33.3467 147.756 32.92L147.692 30.392L148.396 30.552C147.991 30.808 147.543 31.0107 147.052 31.16C146.561 31.3093 146.06 31.4267 145.548 31.512C145.057 31.5973 144.567 31.6933 144.076 31.8C143.607 31.8853 143.18 32.0027 142.796 32.152C142.433 32.3013 142.145 32.504 141.932 32.76C141.719 33.016 141.612 33.368 141.612 33.816C141.612 34.4133 141.815 34.8933 142.22 35.256C142.625 35.6187 143.148 35.8 143.788 35.8ZM156.515 39V31.16V22.104H160.739L160.835 27.832H161.475C161.625 26.3387 161.902 25.1547 162.307 24.28C162.734 23.384 163.331 22.7333 164.099 22.328C164.889 21.9227 165.859 21.72 167.011 21.72C167.182 21.72 167.374 21.7307 167.587 21.752C167.801 21.752 168.046 21.7733 168.323 21.816L168.131 27.32C167.79 27.1493 167.417 27.0427 167.011 27C166.627 26.936 166.286 26.904 165.987 26.904C165.155 26.904 164.43 27.064 163.811 27.384C163.214 27.704 162.734 28.1947 162.371 28.856C162.03 29.5173 161.806 30.3493 161.699 31.352V39H156.515ZM174.515 39.448C173.576 39.448 172.744 39.2667 172.019 38.904C171.293 38.52 170.728 37.976 170.323 37.272C169.917 36.5467 169.715 35.672 169.715 34.648C169.715 33.688 169.896 32.8987 170.259 32.28C170.643 31.64 171.187 31.1387 171.891 30.776C172.616 30.392 173.48 30.0827 174.483 29.848C175.485 29.592 176.627 29.368 177.907 29.176C178.525 29.0693 179.037 28.9733 179.443 28.888C179.869 28.7813 180.189 28.6213 180.403 28.408C180.616 28.1947 180.723 27.8853 180.723 27.48C180.723 26.9467 180.531 26.488 180.147 26.104C179.763 25.72 179.144 25.528 178.291 25.528C177.693 25.528 177.149 25.6347 176.659 25.848C176.189 26.0613 175.784 26.3707 175.443 26.776C175.101 27.1813 174.845 27.672 174.675 28.248L170.131 26.904C170.408 26.008 170.792 25.2293 171.283 24.568C171.795 23.9067 172.403 23.3627 173.107 22.936C173.811 22.488 174.611 22.168 175.507 21.976C176.424 21.7627 177.395 21.656 178.419 21.656C180.125 21.656 181.512 21.9333 182.579 22.488C183.667 23.0213 184.467 23.864 184.979 25.016C185.512 26.1467 185.779 27.608 185.779 29.4V31.992C185.779 32.76 185.789 33.5387 185.811 34.328C185.853 35.096 185.896 35.8747 185.939 36.664C186.003 37.432 186.077 38.2107 186.163 39H181.619C181.533 38.5093 181.448 37.9227 181.363 37.24C181.277 36.536 181.213 35.8213 181.171 35.096H180.563C180.264 35.9067 179.827 36.6533 179.251 37.336C178.696 37.9973 178.013 38.52 177.203 38.904C176.413 39.2667 175.517 39.448 174.515 39.448ZM176.851 35.8C177.235 35.8 177.619 35.736 178.003 35.608C178.408 35.4587 178.792 35.2667 179.155 35.032C179.517 34.776 179.848 34.4667 180.147 34.104C180.445 33.7413 180.669 33.3467 180.819 32.92L180.755 30.392L181.459 30.552C181.053 30.808 180.605 31.0107 180.115 31.16C179.624 31.3093 179.123 31.4267 178.611 31.512C178.12 31.5973 177.629 31.6933 177.139 31.8C176.669 31.8853 176.243 32.0027 175.859 32.152C175.496 32.3013 175.208 32.504 174.995 32.76C174.781 33.016 174.675 33.368 174.675 33.816C174.675 34.4133 174.877 34.8933 175.283 35.256C175.688 35.6187 176.211 35.8 176.851 35.8Z" fill="white"/>
<defs>
<filter id="filter0_ddiii_16601_1519" x="1" y="1" width="54" height="57" filterUnits="userSpaceOnUse" color-interpolation-filters="sRGB">
<feFlood flood-opacity="0" result="BackgroundImageFix"/>
<feColorMatrix in="SourceAlpha" type="matrix" values="0 0 0 0 0 0 0 0 0 0 0 0 0 0 0 0 0 0 127 0" result="hardAlpha"/>
<feMorphology radius="1" operator="erode" in="SourceAlpha" result="effect1_dropShadow_16601_1519"/>
<feOffset dy="3"/>
<feGaussianBlur stdDeviation="2"/>
<feComposite in2="hardAlpha" operator="out"/>
<feColorMatrix type="matrix" values="0 0 0 0 0.164706 0 0 0 0 0.164706 0 0 0 0 0.164706 0 0 0 0.14 0"/>
<feBlend mode="normal" in2="BackgroundImageFix" result="effect1_dropShadow_16601_1519"/>
<feColorMatrix in="SourceAlpha" type="matrix" values="0 0 0 0 0 0 0 0 0 0 0 0 0 0 0 0 0 0 127 0" result="hardAlpha"/>
<feOffset dy="1"/>
<feGaussianBlur stdDeviation="0.5"/>
<feComposite in2="hardAlpha" operator="out"/>
<feColorMatrix type="matrix" values="0 0 0 0 0.162923 0 0 0 0 0.162923 0 0 0 0 0.162923 0 0 0 0.08 0"/>
<feBlend mode="normal" in2="effect1_dropShadow_16601_1519" result="effect2_dropShadow_16601_1519"/>
<feBlend mode="normal" in="SourceGraphic" in2="effect2_dropShadow_16601_1519" result="shape"/>
<feColorMatrix in="SourceAlpha" type="matrix" values="0 0 0 0 0 0 0 0 0 0 0 0 0 0 0 0 0 0 127 0" result="hardAlpha"/>
<feOffset dy="-3"/>
<feGaussianBlur stdDeviation="1.5"/>
<feComposite in2="hardAlpha" operator="arithmetic" k2="-1" k3="1"/>
<feColorMatrix type="matrix" values="0 0 0 0 0 0 0 0 0 0 0 0 0 0 0 0 0 0 0.1 0"/>
<feBlend mode="normal" in2="shape" result="effect3_innerShadow_16601_1519"/>
<feColorMatrix in="SourceAlpha" type="matrix" values="0 0 0 0 0 0 0 0 0 0 0 0 0 0 0 0 0 0 127 0" result="hardAlpha"/>
<feOffset dy="3"/>
<feGaussianBlur stdDeviation="1.5"/>
<feComposite in2="hardAlpha" operator="arithmetic" k2="-1" k3="1"/>
<feColorMatrix type="matrix" values="0 0 0 0 1 0 0 0 0 1 0 0 0 0 1 0 0 0 0.1 0"/>
<feBlend mode="normal" in2="effect3_innerShadow_16601_1519" result="effect4_innerShadow_16601_1519"/>
<feColorMatrix in="SourceAlpha" type="matrix" values="0 0 0 0 0 0 0 0 0 0 0 0 0 0 0 0 0 0 127 0" result="hardAlpha"/>
<feMorphology radius="1" operator="erode" in="SourceAlpha" result="effect5_innerShadow_16601_1519"/>
<feOffset/>
<feComposite in2="hardAlpha" operator="arithmetic" k2="-1" k3="1"/>
<feColorMatrix type="matrix" values="0 0 0 0 0 0 0 0 0 0 0 0 0 0 0 0 0 0 0.2 0"/>
<feBlend mode="normal" in2="effect4_innerShadow_16601_1519" result="effect5_innerShadow_16601_1519"/>
</filter>
<linearGradient id="paint0_linear_16601_1519" x1="24" y1="5.96047e-07" x2="26" y2="48" gradientUnits="userSpaceOnUse">
<stop stop-color="white" stop-opacity="0"/>
<stop offset="1" stop-color="white" stop-opacity="0.12"/>
</linearGradient>
<linearGradient id="paint1_linear_16601_1519" x1="28" y1="4" x2="28" y2="52" gradientUnits="userSpaceOnUse">
<stop stop-color="white" stop-opacity="0.12"/>
<stop offset="1" stop-color="white" stop-opacity="0"/>
</linearGradient>
<clipPath id="clip0_16601_1519">
<rect x="4" y="4" width="48" height="48" rx="12" fill="white"/>
</clipPath>
</defs>
</svg>
